Coordinates
version=1
nRows=6
nColumns=36
inDegrees=yes

Units are S.I. units (second, meters, Newtons, ...)
If the header above contains a line with 'inDegrees', this indicates whether rotational values are in degrees (yes) or radians (no).

endheader
time	pelvis_tilt	pelvis_list	pelvis_rotation	pelvis_tx	pelvis_ty	pelvis_tz	hip_flexion_r	hip_adduction_r	hip_rotation_r	knee_angle_r	knee_angle_r_beta	ankle_angle_r	subtalar_angle_r	mtp_angle_r	hip_flexion_l	hip_adduction_l	hip_rotation_l	knee_angle_l	knee_angle_l_beta	ankle_angle_l	subtalar_angle_l	mtp_angle_l	lumbar_extension	lumbar_bending	lumbar_rotation	arm_flex_r	arm_add_r	arm_rot_r	elbow_flex_r	pro_sup_r	arm_flex_l	arm_add_l	arm_rot_l	elbow_flex_l	pro_sup_l
      0.00000000	      1.26767258	     -1.39916343	      1.00490725	     -0.86413849	      1.30786433	     -0.09146701	     -2.59476463	      0.13572372	     -8.33277143	      7.15442282	      0.12486823	      2.59512155	    -12.94997607	     -6.03703828	     -5.20441541	     -4.08670696	     -1.11330956	      4.18839822	      0.07310134	      7.09393391	      1.64173751	     -6.03703828	    -21.89962292	      1.02300690	     -0.29110579	      8.61077326	     -7.80327740	     10.60840484	     24.12394086	     77.99093778	      6.56770717	     -4.76605641	     13.32905673	     25.76907994	     70.29341687
      0.00166670	      0.57492233	     -1.28156528	      1.38583289	     -0.86329726	      1.30971071	     -0.09151242	     -1.89976178	      0.36369905	     -7.81793204	      7.92040780	      0.13823719	      4.74695875	    -10.62623236	     -6.60377636	     -4.17833053	     -3.47577782	      0.85733549	      4.15616625	      0.07253879	      7.37485814	      1.85581242	     -6.60377636	    -21.45843560	      0.83933066	     -0.30250899	      8.12867780	     -6.24516455	      3.06100999	     23.67072398	     82.16572327	      6.65525493	     -3.66142721	      6.20108838	     24.67829832	     74.71293846
      0.00333330	      0.61573962	     -1.04721781	      1.21353656	     -0.86502558	      1.31362458	     -0.09184346	     -2.05326545	      0.23473290	     -8.38954272	      7.54291079	      0.13164863	      4.88137475	    -10.53150084	     -6.63705468	     -4.41559062	     -3.25106462	      1.13232035	      3.72921566	      0.06508709	      6.96154687	      1.35376676	     -6.63705468	    -21.89885204	      0.26233075	      0.05669564	      8.12656565	     -5.61483602	      1.42233612	     23.50966482	     81.50725622	      6.65727411	     -4.23835880	      5.77170581	     24.73878212	     74.74171110
      0.00500000	      1.75295093	     -1.00970955	      1.41105517	     -0.86492257	      1.31550161	     -0.09185444	     -3.43643128	      0.26029660	     -8.58848551	      7.28185798	      0.12709240	      4.85178567	    -10.16366972	     -6.86466060	     -6.03207973	     -3.22507963	      1.86024457	      3.01768037	      0.05266846	      6.46096819	      0.42214386	     -6.86466060	    -23.38299188	      0.10060037	      0.46921005	      7.95188422	     -5.41546388	      0.68979075	     23.79826741	     78.52058011	      6.77008663	     -5.06976012	      7.45009594	     24.67133941	     73.72257395
      0.00666670	      2.33850714	     -1.02006758	      1.59749257	     -0.86641293	      1.31758292	     -0.09083344	     -4.14030624	      0.39525001	     -8.60584213	      7.05387244	      0.12311330	      4.70854288	    -10.37000016	     -6.89979781	     -6.85907358	     -3.25404718	      2.24159455	      2.56616259	      0.04478799	      6.41380943	      0.02647229	     -6.89979781	    -24.32732668	      0.12557108	      0.66796336	      7.91442429	     -5.34966256	      0.71751679	     23.93080681	     78.00984316	      6.60844876	     -5.49340530	      8.05672693	     24.69737325	     73.61194494
      0.00833330	      2.84585446	     -0.97474958	      1.86186317	     -0.86667008	      1.31724234	     -0.09145031	     -4.75021208	      0.44740323	     -8.72616013	      6.84952591	      0.11954678	      4.64239663	    -10.60487540	     -6.96916779	     -7.39420600	     -3.24882607	      2.77034823	      2.48184175	      0.04331631	      6.24214406	     -0.89438349	     -6.96916779	    -24.99929870	      0.13469047	      1.01722057	      7.77885505	     -5.53053932	      1.23588206	     23.97006694	     78.38715393	      6.94001445	     -6.15057764	     11.51959831	     24.46345720	     75.33499976
